<svg xmlns="http://www.w3.org/2000/svg" xmlns:xlink="http://www.w3.org/1999/xlink" width="797.774" height="450.452" viewBox="0 0 797.774 450.452"><defs><linearGradient id="a" x1="530.143" y1="154.508" x2="604.012" y2="154.508" gradientTransform="matrix(1.506, 0.707, -1.506, 0.707, 47.355, -301.193)" gradientUnits="userSpaceOnUse"><stop offset="0" stop-color="#fff"/><stop offset="1"/></linearGradient></defs><title>PiArt Logo</title><path d="M136.952,206.475c92.667-89.319,176.7,18.182,242.667-43.319,44.333-41.333,30.672-101.276-25.408-129.937C277.482-4.769,153.952,12.256,86.74,71.837,8.274,141.4-12.381,275.6,48.236,358.189c86.946,118.462,261.318,96.511,353.431-15.31,51.506-62.526,92.405-161.873,111.754-204.784" fill="none" stroke="#fff" stroke-linejoin="round" stroke-width="26"/><line x1="438.714" y1="292.536" x2="580.137" y2="292.853" fill="none" stroke="#fff" stroke-linejoin="round" stroke-width="26"/><polyline points="261.257 180.333 261.257 230.292 261.257 302.175" fill="none" stroke="#fff" stroke-linejoin="round" stroke-width="26"/><line x1="201.837" y1="176.333" x2="201.837" y2="302.174" fill="none" stroke="#fff" stroke-linejoin="round" stroke-width="26"/><line x1="514.513" y1="132.879" x2="514.513" y2="385.156" fill="none" stroke="#fff" stroke-linejoin="round" stroke-width="26"/><path d="M680.785,290.656c-42.722-22.389-70.458,6.5-70.458,6.5l-.93,88" fill="none" stroke="#fff" stroke-miterlimit="9" stroke-width="26"/><path d="M713.356,157.715V314.156c1.7,37.792,2.449,58.222,46.608,58.063h33.988" fill="none" stroke="#fff" stroke-linejoin="round" stroke-width="26"/><line x1="557.452" y1="209.045" x2="779.952" y2="209.045" stroke="#fff" stroke-linejoin="round" stroke-width="26" fill="url(#a)"/></svg>